<svg xmlns="http://www.w3.org/2000/svg" xmlns:xlink="http://www.w3.org/1999/xlink" width="147" height="40" viewBox="0 0 147 40">
    <defs>
        <path id="a" d="M.042.149h146.501v39.48H.043z"/>
    </defs>
    <g fill="none" fill-rule="evenodd">
        <g>
            <mask id="b" fill="#fff">
                <use xlink:href="#a"/>
            </mask>
            <path fill="#AC0535" d="M146.543 31.73c0 4.362-3.65 7.898-8.157 7.898H8.155C3.651 39.628 0 36.092 0 31.731V8.045C0 3.682 3.651.149 8.155.149h130.23c4.507 0 8.158 3.533 8.158 7.896V31.73" mask="url(#b)"/>
        </g>
        <path fill="#1A1919" d="M33.494 19.533c0 7.707-6.249 13.955-13.957 13.955-7.706 0-13.955-6.248-13.955-13.955 0-7.705 6.249-13.952 13.955-13.952 7.708 0 13.957 6.247 13.957 13.952"/>
        <path fill="#FFFFFE" d="M44.2 7.488l-3.26.04-.003.226v21.928l2.577.039 3.479.046c8.441 0 13.482-4.25 13.482-11.37 0-7.269-4.171-10.955-12.396-10.955l-3.878.046zm3.357 2.5c6.325 0 9.532 2.898 9.532 8.616 0 5.503-3.462 8.534-9.748 8.534-.942 0-2.303-.039-3.147-.107V10.099a54.04 54.04 0 0 1 3.363-.112zM79.93 7.442H66.987v22.325h13.026V27.16H70.4v-7.653H79.6v-2.522H70.4v-6.98h9.613V7.442h-.083M89.757 7.442h-3.232v22.325H98.62v-2.65h-8.783V7.443h-.08M117.145 7.442H99.551v2.648h7.142v19.677h3.348V10.09h7.187V7.442h-.083M128.668 7.442h-3.266l-9.105 22.325h3.295s2.02-4.991 2.056-5.088h10.481l2.016 5.088h3.551l-8.974-22.325h-.054zm-1.75 3.696a90.298 90.298 0 0 0 1.164 3.259l3.05 7.76h-8.483l3.088-7.715c.427-1.06.821-2.172 1.18-3.304zM140.557 30.698l-.478-.676c-.04-.06-.094-.13-.138-.192.29-.017.513-.196.513-.526 0-.345-.223-.467-.522-.467-.169 0-.274.004-.375.01v1.85h.182v-.854h.007l.577.855h.234zm-.29-1.363c0 .205-.14.352-.385.352-.071 0-.116-.004-.143-.007v-.666c.048-.006.093-.01.153-.01.243 0 .375.088.375.33z"/>
        <path fill="#FFFFFE" d="M138.778 29.305a1.244 1.244 0 1 1 1.244 1.242 1.245 1.245 0 0 1-1.244-1.242zm-.151 0a1.395 1.395 0 1 0 2.79-.005 1.395 1.395 0 0 0-2.79.005zM12.125 27.907l12.995-.005s-10.955-5.828-11.25-5.989a4.312 4.312 0 0 0-1-.403c-1.914-.472-3.875.55-4.377 2.285-.504 1.735.636 3.524 2.552 3.996.36.09.73.113 1.08.116"/>
        <path fill="#FFFFFE" d="M30.187 23.344L24.19 12.093s.005 12.647.003 12.99c-.003.357.021.72.113 1.081.471 1.916 2.262 3.057 3.995 2.555 1.736-.505 2.76-2.464 2.286-4.38a4.367 4.367 0 0 0-.4-.995M17.579 9.356c-.171.293-6.414 11.11-6.414 11.11s10.814-6.248 11.109-6.415c.306-.174.605-.375.866-.64 1.382-1.382 1.403-3.604.043-4.963-1.36-1.357-3.583-1.34-4.966.042a4.184 4.184 0 0 0-.638.866"/>
    </g>
</svg>
