<svg xmlns="http://www.w3.org/2000/svg" xmlns:xlink="http://www.w3.org/1999/xlink" width="24" height="24" viewBox="0 0 24 24">
    <defs>
        <path id="a" d="M1.797 0h10.406C13.191 0 14 .732 14 1.797v10.406C14 13.268 13.191 14 12.203 14H1.797C.808 14 0 13.268 0 12.203V1.797C0 .732.808 0 1.797 0zm8.401 1.555a.632.632 0 0 0-.63.63v1.51c0 .346.284.63.63.63h1.583c.347 0 .63-.284.63-.63v-1.51a.632.632 0 0 0-.63-.63h-1.583zm2.22 4.366h-1.232c.116.38.18.783.18 1.2 0 2.33-1.95 4.217-4.353 4.217-2.403 0-4.351-1.888-4.351-4.216 0-.418.063-.82.18-1.201H1.556v5.913c0 .307.25.557.556.557h9.75c.306 0 .556-.25.556-.557V5.921zM7.013 4.245c-1.553 0-2.811 1.22-2.811 2.725 0 1.504 1.258 2.724 2.811 2.724s2.812-1.22 2.812-2.724c0-1.505-1.259-2.725-2.812-2.725z"/>
    </defs>
    <g fill="none" fill-rule="evenodd" transform="translate(5 5)">
        <mask id="b" fill="#fff">
            <use xlink:href="#a"/>
        </mask>
        <use fill="#000" fill-rule="nonzero" xlink:href="#a"/>
        <g fill="#18191D" mask="url(#b)">
            <path d="M-6-6h24v24H-6z"/>
        </g>
    </g>
</svg>
