<svg xmlns="http://www.w3.org/2000/svg" xmlns:xlink="http://www.w3.org/1999/xlink" width="24" height="24" viewBox="0 0 24 24">
    <defs>
        <path id="a" d="M13.417 0H.583C.233 0 0 .233 0 .583v12.834c0 .35.233.583.583.583h12.834c.35 0 .583-.233.583-.583V.583c0-.35-.233-.583-.583-.583zM4.142 11.958H2.1V5.25h2.1v6.708h-.058zm-1.05-7.641a1.232 1.232 0 0 1-1.225-1.225c0-.642.525-1.225 1.225-1.225.641 0 1.225.525 1.225 1.225 0 .7-.525 1.225-1.225 1.225zm8.866 7.641h-2.1V8.692c0-.759 0-1.75-1.05-1.75-1.108 0-1.225.816-1.225 1.691v3.325h-2.1V5.25h1.984v.933c.291-.525.933-1.05 1.983-1.05 2.1 0 2.508 1.4 2.508 3.209v3.616z"/>
    </defs>
    <g fill="none" fill-rule="evenodd" transform="translate(5 5)">
        <mask id="b" fill="#fff">
            <use xlink:href="#a"/>
        </mask>
        <use fill="#000" xlink:href="#a"/>
        <g fill="#18191D" mask="url(#b)">
            <path d="M-5-5h24v24H-5z"/>
        </g>
    </g>
</svg>
