<svg xmlns="http://www.w3.org/2000/svg" xmlns:xlink="http://www.w3.org/1999/xlink" width="24" height="24" viewBox="0 0 24 24"><defs><path id="a" d="M16 1.539a6.57 6.57 0 0 1-1.886.516A3.285 3.285 0 0 0 15.558.24a6.555 6.555 0 0 1-2.084.797A3.282 3.282 0 0 0 7.88 4.03 9.318 9.318 0 0 1 1.114.6 3.283 3.283 0 0 0 2.13 4.983a3.27 3.27 0 0 1-1.487-.41v.041a3.284 3.284 0 0 0 2.633 3.218 3.284 3.284 0 0 1-1.482.056 3.286 3.286 0 0 0 3.066 2.28A6.587 6.587 0 0 1 0 11.524 9.296 9.296 0 0 0 5.032 13c6.038 0 9.34-5.001 9.34-9.338 0-.141-.004-.284-.01-.424A6.667 6.667 0 0 0 16 1.538"/></defs><g fill="none" fill-rule="evenodd" transform="translate(4 6)"><mask id="b" fill="#fff"><use xlink:href="#a"/></mask><use fill="#00B176" xlink:href="#a"/><g fill="#18191D" mask="url(#b)"><path d="M-4-6h23v23H-4z"/></g></g></svg>