<svg xmlns="http://www.w3.org/2000/svg" xmlns:xlink="http://www.w3.org/1999/xlink" width="24" height="24" viewBox="0 0 24 24">
    <defs>
        <path id="a" d="M8 0C3.582 0 0 3.647 0 8.145c0 3.336 1.97 6.2 4.788 7.46-.022-.568-.004-1.251.14-1.87l1.029-4.438s-.255-.52-.255-1.29c0-1.206.687-2.107 1.542-2.107.728 0 1.08.556 1.08 1.222 0 .745-.467 1.86-.707 2.891-.2.864.425 1.569 1.263 1.569 1.515 0 2.537-1.983 2.537-4.33 0-1.786-1.182-3.122-3.33-3.122-2.426 0-3.938 1.842-3.938 3.9 0 .71.205 1.211.528 1.598.147.178.168.25.114.454l-.162.655c-.054.206-.218.279-.401.203C3.11 10.475 2.59 9.23 2.59 7.828c0-2.314 1.916-5.089 5.717-5.089 3.055 0 5.064 2.25 5.064 4.667 0 3.195-1.744 5.582-4.316 5.582-.864 0-1.676-.476-1.954-1.016 0 0-.465 1.878-.563 2.24-.17.628-.502 1.255-.805 1.745A7.87 7.87 0 0 0 8 16.29c4.418 0 8-3.648 8-8.146C16 3.647 12.418 0 8 0"/>
    </defs>
    <g fill="none" fill-rule="evenodd" transform="translate(4 4)">
        <mask id="b" fill="#fff">
            <use xlink:href="#a"/>
        </mask>
        <use fill="#00B176" xlink:href="#a"/>
        <g fill="#18191D" mask="url(#b)">
            <path d="M-5-4h24v24H-5z"/>
        </g>
    </g>
</svg>
