<svg xmlns="http://www.w3.org/2000/svg" xmlns:xlink="http://www.w3.org/1999/xlink" width="24" height="24" viewBox="0 0 24 24"><defs><path id="a" d="M19.778 15.222a10.958 10.958 0 00-4.18-2.622 6.357 6.357 0 002.761-5.24A6.367 6.367 0 0012 1a6.367 6.367 0 00-6.36 6.36 6.357 6.357 0 002.762 5.24 10.958 10.958 0 00-4.18 2.622A10.928 10.928 0 001 23h1.719c0-5.118 4.163-9.281 9.281-9.281s9.281 4.163 9.281 9.281H23c0-2.938-1.144-5.7-3.222-7.778zM12 12a4.646 4.646 0 01-4.64-4.64A4.646 4.646 0 0112 2.718a4.646 4.646 0 014.64 4.64A4.646 4.646 0 0112 12z"/></defs><g fill="#fff" fill-rule="evenodd"><mask id="b"><use xlink:href="#a"/></mask><use fill-rule="nonzero" xlink:href="#a"/><g mask="url(#b)"><path d="M0 0h24v24H0z"/></g></g></svg>