<svg xmlns="http://www.w3.org/2000/svg" xmlns:xlink="http://www.w3.org/1999/xlink" width="24" height="24" viewBox="0 0 24 24"><defs><path id="a" d="M6.502 3.188A8.817 8.817 0 002.31 8.565a8.678 8.678 0 00.9 6.72c1.601 2.731 4.59 4.429 7.797 4.429a9.1 9.1 0 002.97-.501l3.082 4.783 2.194-1.2-3.081-4.781c1.367-1.151 3.042-3.119 3.518-4.866a8.678 8.678 0 00-.9-6.72C17.19 3.697 14.2 2 10.994 2c-1.57 0-3.124.41-4.491 1.188zm10.558 4.17a6.954 6.954 0 01.699 5.31 6.953 6.953 0 01-3.26 4.25 6.99 6.99 0 01-3.49.939 7.024 7.024 0 01-6.069-3.501 6.953 6.953 0 01-.698-5.31 6.953 6.953 0 013.26-4.25 6.99 6.99 0 013.49-.94 7.024 7.024 0 016.068 3.502z"/></defs><g fill="none" fill-rule="evenodd"><mask id="b" fill="#fff"><use xlink:href="#a"/></mask><use fill="#18191D" fill-rule="nonzero" transform="rotate(-16 11 12.998)" xlink:href="#a"/><g fill="#18191D" mask="url(#b)"><path d="M0 0h24v24H0z"/></g></g></svg>