<svg width="400" height="107" xmlns="http://www.w3.org/2000/svg" xmlns:xlink="http://www.w3.org/1999/xlink"><defs><path id="a" d="M0 .288h38.616v39.633H0z"/><path id="c" d="M.055.691h45.963v14.586H.055z"/></defs><g fill="none" fill-rule="evenodd"><g transform="translate(0 39.64)"><mask id="b" fill="#fff"><use xlink:href="#a"/></mask><path d="M11.371 30.093c2.054 0 4.062.124 6.05-.024 5.534-.41 8.923-3.486 9.614-8.566.572-4.196-1.166-7.99-4.591-9.934-3.484-1.977-7.29-1.54-11.073-1.528v20.052zM0 .296c5.77.011 11.54-.05 17.31.056 4.127.076 8.12.944 11.76 2.981 6.652 3.727 9.641 9.558 9.544 17.047-.13 10.07-6.853 17.189-17.102 18.995-2.064.364-4.19.474-6.291.506-4.681.073-9.364.025-14.046.018-.392 0-.784-.062-1.175-.095V.296z" fill="#FFF" mask="url(#b)"/></g><path d="M399.241 79.64c-.424-.032-.847-.092-1.27-.092-10.092-.006-20.183-.005-30.275-.005h-1.304V39.997h32.566v9.227h-21.437v6.013h19.371v8.667h-19.369v6.255h21.718v9.482z" fill="#FFF"/><g transform="translate(69.278 .132)"><mask id="d" fill="#fff"><use xlink:href="#c"/></mask><path d="M23.159.691c4.744 3.024 9.487 6.051 14.235 9.071 2.556 1.626 5.119 3.238 7.676 4.859.264.167.514.355.948.656H.055c.485-.32.818-.548 1.159-.765 7.063-4.473 14.127-8.945 21.19-13.42.192-.122.371-.266.557-.4h.198z" fill="#FFF" mask="url(#d)"/></g><path d="M299.29 96.685c.029-1.434-.292-2.96-1.153-4.338-1.78-2.853-5.321-2.924-6.992-.023-1.72 2.99-1.684 6.128.154 9.068 1.668 2.67 5.05 2.6 6.78-.035.892-1.36 1.217-2.886 1.21-4.672zm-5.946 9.624c-3.155-.8-5.296-2.728-6.188-5.853-1.104-3.872-.83-7.614 1.957-10.746 3.134-3.522 8.443-3.294 11.425.344 3.151 3.843 2.876 10.797-.732 14.103-1.061.973-2.58 1.449-3.889 2.152h-2.573zm-84.676-66.373v39.522H197.54V57.316l-.254-.1-10.278 15.31-10.195-15.24-.18.052v22.12H165.57v-39.47c.308-.017.623-.05.938-.05 3.363-.003 6.727.015 10.09-.018.635-.006.998.18 1.339.725 2.806 4.492 5.646 8.962 8.477 13.44.21.33.416.663.688 1.096.245-.356.448-.628.629-.914 2.848-4.505 5.705-9.003 8.528-13.524.372-.596.762-.836 1.483-.826 3.298.043 6.596.019 9.894.019h1.032zm141.969 39.536V57.365a17.479 17.479 0 0 0-.217-.102l-10.23 15.255-10.38-15.52v22.473h-11.048V39.99c.33-.02.615-.051.902-.052 3.364-.004 6.729.021 10.092-.022.694-.009 1.053.249 1.398.8 2.828 4.517 5.681 9.019 8.528 13.524.19.3.392.59.639.96l7.439-11.77c.14-.221.279-.445.423-.665.614-.932 1.035-2.22 1.901-2.69.87-.472 2.185-.135 3.305-.137 2.473-.006 4.947-.003 7.42-.003h1.008v39.537h-11.179zM53.263 58.932c2.322 0 4.586.02 6.85-.01.884-.012 1.784-.057 2.646-.231 2.46-.5 3.915-2.238 3.887-4.52-.03-2.397-1.466-4.242-3.99-4.491-3.095-.307-6.224-.256-9.393-.36v9.612zm16.355 6.838l9.654 13.773H78.16c-3.662 0-7.324-.017-10.986.016-.674.006-1.067-.216-1.439-.77a1063.175 1063.175 0 0 0-7.232-10.605c-.178-.258-.525-.555-.804-.565-1.445-.057-2.893-.027-4.438-.027v11.854H41.92V40.004c.172-.024.325-.065.478-.064 6.73.007 13.459-.03 20.187.05 2.917.034 5.762.592 8.422 1.895 4.997 2.448 7.147 6.927 6.912 12.28-.246 5.583-3.14 9.327-8.302 11.605zm212.347-6.063c.013 6.037 4.512 10.67 10.37 10.682 5.852.011 10.306-4.586 10.28-10.61-.029-6.08-4.483-10.659-10.37-10.656-5.888.002-10.294 4.537-10.28 10.584m8.991 20.626c-6.795-.221-13.46-3.189-17.717-10.28-6.287-10.469-1.801-23.856 9.53-28.907 8.795-3.92 19.707-1.927 25.959 4.744 9.097 9.706 6.5 25.253-5.294 31.68-3.332 1.816-7.177 2.765-12.478 2.763M229.519 39.99h11.18v14.702h14.383V40.006h11.251v39.456h-11.219V64.607h-14.377v14.879h-11.218zm-114.476-.017v9.265H93.695v5.977h19.296v8.681H93.688v6.268h21.63v9.294H82.51V39.973zm29.536 23.825l-4.452-11.014c-1.562 3.813-3.018 7.374-4.508 11.014h8.96zM117.55 79.54c1.853-4.306 3.626-8.439 5.41-12.567 3.794-8.78 7.605-17.55 11.37-26.34.314-.735.676-.96 1.45-.948 3.034.046 6.07.026 9.104.013.5-.003.828.065 1.064.611 5.588 12.944 11.2 25.879 16.804 38.815.037.084.042.18.077.34-.21.029-.395.074-.58.074-3.563.005-7.124-.012-10.686.019-.615.006-.867-.246-1.07-.767-.73-1.867-1.516-3.712-2.235-5.582-.221-.576-.523-.794-1.154-.79-4.683.025-9.367.022-14.05.003-.582-.004-.872.182-1.086.736a158.84 158.84 0 0 1-2.32 5.654c-.126.296-.493.694-.753.697-3.72.046-7.442.032-11.345.032zm-2.1-58.14v12.228h-5.867V21.445h-4.604v-4.852h.902c5.31 0 10.621.013 15.931-.015.666-.004.972.176 1.193.83.947 2.799 1.965 5.574 3.04 8.592.193-.454.322-.721.421-1 .902-2.539 1.816-5.073 2.682-7.624.202-.594.483-.814 1.123-.798 1.84.043 3.683.015 5.628.015-.134.382-.218.659-.329.926-2.116 5.099-4.246 10.192-6.341 15.3-.276.672-.614.958-1.372.915-1.248-.072-2.506-.054-3.758-.005-.656.025-.98-.176-1.235-.811-1.412-3.507-2.905-6.978-4.311-10.486-.315-.786-.695-1.183-1.574-1.044-.448.07-.917.012-1.528.012M80.58 27.648h-5.384v6h-5.855V16.652h5.815v5.866h5.401v-5.843h5.866V33.64H80.58zm23.88-8.912l-3.228 3.81c-1.052-.386-1.998-.856-2.999-1.069-1.618-.343-3.105-.006-4.114 1.45-.9 1.3-.874 3.322.03 4.571 1.078 1.49 2.604 1.787 4.31 1.54.74-.108 1.148-.472.823-1.424h-2.797V23.54h8.453c0 2.597.008 5.09-.016 7.583-.002.217-.167.505-.347.637-3.736 2.747-10.539 3.431-14.545-.193-2.66-2.407-3.4-5.447-2.497-8.81.944-3.512 3.46-5.542 6.946-6.27 3.45-.724 6.681-.082 9.557 2.044.107.08.242.119.424.205m239.708 77.723c2.195.037 3.779-1.316 3.807-3.255.03-2.007-1.495-3.436-3.719-3.486-2.109-.046-3.696 1.363-3.766 3.343-.068 1.932 1.478 3.36 3.678 3.398m-6.504 7.269l1.696-2.363c5.24 2.88 8.301 1.538 8.738-3.931-1.392 1.337-2.965 1.883-4.8 1.783-3.72-.204-6.093-2.461-6.103-5.883-.009-3.448 2.598-6.184 6.101-6.4 4.704-.293 7.466 1.983 8.088 6.686.368 2.787.185 5.518-1.024 8.104-2.23 4.772-8.958 5.857-12.696 2.004m-77.307 2.152c-.346-1.59-.025-2.754 1.344-3.784 2.179-1.639 4.198-3.496 6.236-5.315a8.703 8.703 0 0 0 1.623-1.967c.748-1.237.595-2.786-.23-3.688-.825-.901-2.522-1.254-3.75-.55-1.005.576-1.85 1.43-2.912 2.279l-2.101-1.646c1.98-3.52 6.353-4.938 9.873-3.27 2.993 1.422 4.006 5.401 1.996 8.278-.743 1.063-1.737 1.97-2.705 2.853-1.216 1.107-2.522 2.115-3.789 3.167-.265.222-.525.45-1.007.864h8.587v2.779h-13.165zm61.818-.21h-3.19V90.514c-.97.27-1.81.497-2.645.737-.447.127-.749.09-.85-.469-.116-.643-.315-1.272-.516-2.056 2.383-.59 4.555-1.913 7.201-1.522v18.468zm-131.659-7.958v-5.587h2.173v9.632c-1.334.42-1.748.3-2.575-.756a7413.096 7413.096 0 0 1-4.05-5.168v6.015h-2.276v-9.63c1.537-.436 1.977-.295 2.916.91 1.155 1.478 2.316 2.951 3.478 4.425.033.041.106.052.334.16m42.89-.953c.96 0 1.845.077 2.71-.025.71-.083 1.188-.58 1.165-1.354-.021-.768-.497-1.232-1.23-1.293-.864-.071-1.74-.017-2.645-.017v2.688zm-2.237-4.648c1.905 0 3.784-.093 5.648.03 1.424.093 2.405 1.068 2.672 2.276.348 1.576-.146 2.852-1.432 3.691-.161.105-.327.203-.55.34l2.394 3.477c-.912 0-1.626.033-2.333-.018-.213-.017-.46-.225-.605-.411-.383-.495-.779-.994-1.057-1.548-.518-1.026-1.264-1.456-2.51-1.063v2.985h-2.227v-9.759zM67.152 96.76c.958 0 1.818.072 2.656-.023.723-.083 1.167-.576 1.143-1.361-.023-.785-.488-1.228-1.222-1.287-.838-.068-1.685-.016-2.577-.016v2.686zm-.072 2.12v3h-2.188v-9.79c1.866 0 3.68-.072 5.485.022 1.46.076 2.55 1.09 2.825 2.366.33 1.53-.21 2.847-1.504 3.663-.135.085-.276.162-.51.299l2.416 3.486c-.926 0-1.636.032-2.34-.018-.212-.016-.458-.223-.6-.408-.401-.52-.826-1.043-1.115-1.625-.507-1.019-1.267-1.325-2.469-.995zm17.917 1.138c1.686.013 2.998-1.262 3.046-2.958.047-1.679-1.314-3.122-2.983-3.162-1.693-.04-3.07 1.314-3.08 3.031-.01 1.74 1.294 3.076 3.017 3.09m-5.393-3.085c.02-2.882 2.386-5.086 5.447-5.076 3.048.01 5.429 2.295 5.37 5.154-.06 2.888-2.458 5.127-5.464 5.1-3.054-.028-5.374-2.273-5.353-5.178m139.385 3.084c1.698-.003 2.983-1.297 2.991-3.014.01-1.734-1.341-3.117-3.034-3.106-1.67.01-2.985 1.343-2.994 3.038-.01 1.75 1.306 3.086 3.037 3.082m.012-8.16c3.068.001 5.388 2.225 5.36 5.137-.028 2.893-2.406 5.138-5.423 5.12-3.05-.02-5.383-2.266-5.362-5.162.02-2.901 2.359-5.098 5.425-5.095m-44.391 5.135c.007-1.732-1.344-3.106-3.042-3.095-1.684.011-2.954 1.322-2.956 3.05-.002 1.782 1.274 3.077 3.026 3.07 1.703-.006 2.966-1.29 2.972-3.025m-3.016-5.134c3.07-.022 5.397 2.177 5.393 5.096-.003 2.911-2.325 5.14-5.374 5.158-3.017.016-5.344-2.156-5.378-5.023-.035-3 2.229-5.21 5.36-5.231m-56.36 2.213v5.86c1.616.033 3.223.205 4.191-1.38.644-1.053.625-2.213-.074-3.255-1.011-1.508-2.566-1.298-4.117-1.225m-2.326 7.847v-9.75c1.818 0 3.618-.212 5.344.05 2.56.391 4.113 2.542 3.97 4.998-.153 2.596-2.053 4.486-4.849 4.685-1.441.102-2.896.017-4.465.017m-9.355-9.804h2.147c0 2.314.114 4.578-.04 6.824-.104 1.492-1.102 2.579-2.602 2.87-1.039.203-2.174.239-3.213.053-1.637-.295-2.696-1.583-2.794-3.39-.115-2.092-.027-4.195-.027-6.356h2.242c0 .533-.003 1.075 0 1.615.01 1.447-.036 2.896.051 4.338.078 1.288.906 1.97 2.15 1.947 1.232-.023 2.018-.751 2.061-2.043.053-1.577.02-3.157.025-4.735v-1.123m-50.87 1.955v2.951c.809-.047 1.564-.016 2.286-.155.772-.148 1.137-.712 1.075-1.52-.062-.79-.558-1.184-1.27-1.26-.673-.071-1.36-.015-2.09-.015zm-2.311-1.98c1.717 0 3.369-.1 5.002.027 1.89.147 3.082 1.638 3.015 3.506-.07 1.909-1.507 3.215-3.707 3.337-.65.036-1.303.005-2.047.005v2.89h-2.263V92.09zm104.188 1.98v2.869c.748 0 1.441.08 2.107-.02.801-.12 1.302-.657 1.262-1.506-.037-.807-.563-1.254-1.332-1.33-.645-.064-1.302-.013-2.037-.013m-.11 4.997v2.828h-2.15v-9.747c1.744 0 3.524-.152 5.266.043 1.691.187 2.668 1.587 2.664 3.287-.005 1.686-.98 2.957-2.683 3.304-.955.193-1.95.187-3.096.285m-17.029 1.421l1.247-1.482c.821.354 1.546.739 2.316.97.45.134 1.002.121 1.453-.01.3-.086.649-.476.703-.777.04-.227-.297-.672-.562-.776-.946-.374-1.95-.592-2.898-.96-1.526-.596-2.054-1.627-1.748-3.203.201-1.034.839-1.725 1.798-2.054 1.952-.668 3.742-.274 5.47.948l-1.056 1.485c-1.04-.279-1.936-.611-2.86-.72-.35-.04-.763.436-1.148.676.29.341.513.834.88.995.838.367 1.766.523 2.622.856 1.353.526 1.896 1.381 1.843 2.714-.05 1.268-.743 2.245-2.02 2.631-2.184.661-4.145.142-6.04-1.293m62.979-1.338c1.224.343 2.264.737 3.337.88.396.053.871-.485 1.31-.755-.335-.348-.607-.835-1.016-1.016-.804-.356-1.701-.495-2.529-.808-1.315-.498-1.812-1.23-1.815-2.515-.004-1.289.58-2.232 1.778-2.691 1.976-.757 3.79-.34 5.56.902l-1.05 1.491c-1.04-.283-1.932-.619-2.85-.727-.357-.043-.775.425-1.164.662.284.346.499.846.865 1.008.804.357 1.705.492 2.53.81 1.527.589 1.97 1.29 1.915 2.832-.043 1.277-.78 2.25-2.15 2.61-2.146.564-4.081.077-5.868-1.368.475-.543.9-1.03 1.147-1.315m-68.575-66.453l.294.458-.276.187-.457-.665c.156-.002.312-.003.47-.007-.01-.012-.023-.022-.036-.032l.005.059" fill="#FFF"/></g></svg>