<svg xmlns="http://www.w3.org/2000/svg" xmlns:xlink="http://www.w3.org/1999/xlink" width="112" height="43" viewBox="0 0 112 43"><defs><path id="a" d="M.032.114h111.62v30.239H.032z"/></defs><g fill="none" fill-rule="evenodd"><mask id="b" fill="#fff"><use xlink:href="#a"/></mask><path fill="#AC0535" d="M111.652 24.304c0 3.34-2.782 6.049-6.215 6.049H6.213C2.782 30.353 0 27.644 0 24.303V6.163C0 2.82 2.782.114 6.213.114h99.224c3.433 0 6.215 2.706 6.215 6.048v18.142" mask="url(#b)"/><path fill="#1A1919" d="M26 15.247c0 5.965-4.844 10.801-10.82 10.801-5.974 0-10.818-4.836-10.818-10.801 0-5.964 4.844-10.8 10.818-10.8 5.976 0 10.82 4.836 10.82 10.8"/><path fill="#FFFFFE" d="M33.593 6.538l-2.461.031-.003.177v17.191l1.945.03 2.627.037c6.372 0 10.176-3.333 10.176-8.915 0-5.698-3.148-8.588-9.356-8.588l-2.928.037zm2.533 1.959c4.775 0 7.196 2.272 7.196 6.755 0 4.315-2.613 6.69-7.359 6.69-.71 0-1.738-.03-2.375-.083V8.584a39.282 39.282 0 012.538-.087zm23.842-1.93h-9.32V23.94h9.38v-2.03h-6.923v-5.954h6.627v-1.963h-6.627V8.562h6.923V6.567h-.06m8.567 0h-2.4V23.94h8.981v-2.062h-6.522V6.567h-.06m19.441 0H75.058v2.061H80.3v15.311h2.459V8.628h5.276v-2.06h-.06m9.548-.001h-2.497L88.065 23.94h2.519s1.544-3.884 1.572-3.96h8.013l1.542 3.96h2.715L97.564 6.567h-.04zm-1.338 2.876c.28.847.6 1.76.89 2.536l2.332 6.039h-6.486l2.361-6.004c.327-.825.628-1.69.903-2.57zM9.425 21.308l9.708-.005s-8.184-4.711-8.405-4.842a3.085 3.085 0 00-.747-.325c-1.429-.382-2.894.444-3.27 1.847-.375 1.403.476 2.849 1.908 3.231.269.073.546.091.806.094m13.89-4.116L18.458 8.8s.004 9.432.002 9.687c-.002.267.018.538.092.807.381 1.429 1.832 2.28 3.236 1.905 1.406-.377 2.234-1.837 1.85-3.266a3.113 3.113 0 00-.323-.742M12.8 7.243l-4.85 8.393s8.18-4.72 8.404-4.846c.231-.13.457-.283.655-.482 1.045-1.045 1.061-2.724.032-3.75-1.028-1.026-2.71-1.013-3.756.031a3.161 3.161 0 00-.483.654M106.738 23.5l-.349-.421c-.03-.039-.068-.082-.1-.12.21-.011.374-.122.374-.328 0-.215-.163-.29-.38-.29-.124 0-.2.001-.274.006v1.152h.132v-.532h.005l.42.533h.172zm-.212-.85c0 .128-.102.22-.28.22a.993.993 0 01-.105-.005v-.415a.99.99 0 01.111-.006c.178 0 .274.055.274.206z"/><path fill="#FFFFFE" d="M105.383 22.928a.93.93 0 011.86 0 .93.93 0 01-1.86 0zm-.114 0a1.043 1.043 0 102.088 0 1.045 1.045 0 00-2.088 0z"/><path fill="#1A1919" d="M13.301 39.038c-.174-.51-.501-.756-.89-.756-.297 0-.521.214-.521.5 0 .859 2.516.879 2.516 2.533 0 1.102-.778 1.685-1.852 1.685-.777 0-1.472-.194-2.097-1.583l1.156-.317c.113.521.43.859.941.859.389 0 .624-.184.624-.49 0-1.063-2.516-.808-2.516-2.676 0-1.052.849-1.552 1.76-1.552.96 0 1.626.55 1.943 1.389l-1.064.408m4.789.347v-.306c0-.49-.236-.797-.758-.797s-.757.307-.757.797v.306h1.514zm-1.515 1.042v.735c0 .55.327.797.757.797.542 0 .757-.348.757-.777h1.289C19.316 42.326 18.63 43 17.332 43c-1.228 0-2.046-.756-2.046-1.971v-1.818c0-1.215.818-1.97 2.046-1.97 1.197 0 2.046.755 2.046 1.889v1.297h-2.803zm6.629-1.042v-.306c0-.49-.235-.797-.757-.797-.521 0-.757.307-.757.797v.306h1.514zm-1.514 1.042v.735c0 .55.328.797.757.797.543 0 .757-.348.757-.777h1.289C24.432 42.326 23.747 43 22.447 43c-1.227 0-2.046-.756-2.046-1.971v-1.818c0-1.215.819-1.97 2.046-1.97 1.197 0 2.046.755 2.046 1.889v1.297H21.69zm6.088-3.084h1.207l.747 3.472h.02l.747-3.472h1.105l.788 3.472h.02l.706-3.472h1.207l-1.31 5.555H31.81l-.788-3.472H31l-.686 3.472h-1.207l-1.33-5.555m7.305 5.555v-7.372h1.29v2.45c.43-.409.87-.735 1.401-.735.788 0 1.197.397 1.197 1.43v4.227h-1.289v-4.085c0-.367-.123-.613-.47-.613-.267 0-.563.256-.84.501v4.197h-1.289m7.663-2.717c-.767.266-1.545.695-1.545 1.277 0 .367.225.582.573.582.39 0 .665-.204.972-.51v-1.35zm-2.67-1.214c.093-1.236 1.033-1.726 2.067-1.726 1.37 0 1.892.694 1.892 1.685v3.523c0 .153.031.305.072.449h-1.29c-.03-.144-.05-.317-.091-.541A2.13 2.13 0 0141.19 43c-.777 0-1.278-.43-1.278-1.328 0-1.286 1.227-1.838 2.833-2.317v-.41c0-.48-.296-.663-.665-.663-.389 0-.716.286-.716.685h-1.289zm4.685-.337v-1.042h.513v-1.512h1.288v1.512h.829v1.042h-.829v2.838c0 .276.236.409.583.409.093 0 .174 0 .256-.01v1.081c-.245.041-.49.052-.736.052-.839 0-1.391-.306-1.391-1.103V38.63h-.512m7.673 3.022h.49c.778 0 1.228-.367 1.228-1.47V38.24c0-1.041-.347-1.47-1.227-1.47h-.491v4.88zm-1.412-6.126h1.964c1.616 0 2.516.693 2.578 2.552v2.267c-.062 1.858-.962 2.553-2.578 2.553h-1.964v-7.372zm8.368 3.859v-.306c0-.49-.235-.797-.756-.797-.522 0-.758.307-.758.797v.306h1.515zm-1.514 1.042v.735c0 .55.328.797.758.797.542 0 .757-.348.757-.777h1.288C60.618 42.326 59.933 43 58.634 43c-1.228 0-2.046-.756-2.046-1.971v-1.818c0-1.215.818-1.97 2.046-1.97 1.196 0 2.045.755 2.045 1.889v1.297h-2.803zm4.094 2.471h1.288v-7.372h-1.289zm2.127-4.268v-1.042h.511v-1.512h1.29v1.512h.828v1.042h-.829v2.838c0 .276.236.409.584.409.092 0 .174 0 .255-.01v1.081c-.246.041-.49.052-.737.052-.838 0-1.39-.306-1.39-1.103V38.63h-.512m5.943 1.551c-.767.266-1.544.695-1.544 1.277 0 .367.225.582.573.582.388 0 .665-.204.972-.51v-1.35zm-2.67-1.214c.093-1.236 1.034-1.726 2.067-1.726 1.37 0 1.892.694 1.892 1.685v3.523c0 .153.031.305.073.449h-1.29c-.03-.144-.051-.317-.092-.541-.378.377-.89.643-1.534.643-.778 0-1.279-.43-1.279-1.328 0-1.286 1.228-1.838 2.834-2.317v-.41c0-.48-.297-.663-.665-.663-.389 0-.716.286-.716.685h-1.29zm9.965.296v-.245c0-.43-.306-.654-.757-.654-.45 0-.757.225-.757.654v2.204c0 .43.307.655.757.655s.757-.225.757-.655v-.346h1.289v.02c0 1.47-.757 2.104-2.046 2.104-1.29 0-2.046-.633-2.046-2.104v-1.552c0-1.47.757-2.103 2.046-2.103 1.258 0 2.015.612 2.036 2.022h-1.279m4.962.918c-.767.266-1.544.695-1.544 1.277 0 .367.225.582.572.582.389 0 .665-.204.972-.51v-1.35zm-2.67-1.214c.093-1.236 1.033-1.726 2.067-1.726 1.37 0 1.891.694 1.891 1.685v3.523c0 .153.032.305.073.449h-1.289c-.03-.144-.052-.317-.093-.541-.378.377-.89.643-1.534.643-.777 0-1.279-.43-1.279-1.328 0-1.286 1.228-1.838 2.834-2.317v-.41c0-.48-.296-.663-.665-.663-.388 0-.716.286-.716.685h-1.289zm5.238 3.931v-5.555h1.248v.632c.471-.408.91-.734 1.443-.734.787 0 1.196.397 1.196 1.43v4.227h-1.288v-4.085c0-.367-.123-.613-.47-.613-.267 0-.563.256-.84.501v4.197h-1.289m9.535-4.299c-.255-.276-.491-.399-.777-.399-.348 0-.634.225-.634 1.328v1.184c0 1.103.286 1.328.634 1.328.286 0 .522-.123.777-.398v-3.043zm.103 4.299v-.674h-.02c-.226.347-.8.776-1.372.776-1.002 0-1.412-.776-1.412-2.206v-1.347c0-1.43.41-2.206 1.412-2.206.348 0 .676.163 1.289.612v-2.327h1.29v7.372h-1.187zm3.601-1.676c0 .43.307.655.758.655.45 0 .756-.225.756-.655v-2.204c0-.43-.307-.654-.756-.654-.45 0-.758.225-.758.654v2.204zm-1.29-1.878c0-1.47.758-2.103 2.048-2.103 1.288 0 2.045.633 2.045 2.103v1.552c0 1.47-.757 2.104-2.045 2.104-1.29 0-2.047-.633-2.047-2.104v-1.552zm4.979-.859c.07.047.209.085.335.085.31 0 .459-.176.459-.379 0-.192-.112-.297-.335-.384-.18-.07-.26-.13-.26-.253 0-.09.068-.197.247-.197.12 0 .207.037.247.062l.047-.137a.583.583 0 00-.287-.065c-.256 0-.425.152-.425.356 0 .183.132.295.346.373.177.067.247.138.247.259 0 .134-.1.224-.274.224a.578.578 0 01-.302-.086l-.045.142zm2.352.067l-.115-.805a8.336 8.336 0 01-.042-.328h-.004c-.013.054-.032.13-.063.22l-.306.913h-.168l-.291-.856a2.512 2.512 0 01-.084-.277h-.002c-.006.106-.019.21-.034.344l-.095.789h-.152l.185-1.307h.188l.297.883c.033.094.062.182.074.254h.005c.018-.091.038-.147.07-.24l.307-.897h.194l.194 1.307h-.158z"/></g></svg>