<svg xmlns="http://www.w3.org/2000/svg" xmlns:xlink="http://www.w3.org/1999/xlink"><symbol viewBox="0 0 24 24" id="account" xmlns="http://www.w3.org/2000/svg"><defs><path id="aa" d="M19.778 15.222a10.958 10.958 0 00-4.18-2.622 6.357 6.357 0 002.761-5.24A6.367 6.367 0 0012 1a6.367 6.367 0 00-6.36 6.36 6.357 6.357 0 002.762 5.24 10.958 10.958 0 00-4.18 2.622A10.928 10.928 0 001 23h1.719c0-5.118 4.163-9.281 9.281-9.281s9.281 4.163 9.281 9.281H23c0-2.938-1.144-5.7-3.222-7.778zM12 12a4.646 4.646 0 01-4.64-4.64A4.646 4.646 0 0112 2.718a4.646 4.646 0 014.64 4.64A4.646 4.646 0 0112 12z"/></defs><g fill="#fff" fill-rule="evenodd"><mask id="ab"><use xlink:href="#aa"/></mask><use fill-rule="nonzero" xlink:href="#aa"/><g mask="url(#ab)"><path d="M0 0h24v24H0z"/></g></g></symbol><symbol viewBox="0 0 257 300" id="bars" xmlns="http://www.w3.org/2000/svg"><path d="M257.143 225v21.429c0 5.859-4.855 10.714-10.714 10.714H10.715c-5.859 0-10.714-4.855-10.714-10.714V225c0-5.859 4.855-10.714 10.714-10.714h235.714c5.859 0 10.714 4.855 10.714 10.714zm0-85.714v21.429c0 5.859-4.855 10.714-10.714 10.714H10.715c-5.859 0-10.714-4.855-10.714-10.714v-21.429c0-5.859 4.855-10.714 10.714-10.714h235.714c5.859 0 10.714 4.855 10.714 10.714zm0-85.715V75c0 5.859-4.855 10.714-10.714 10.714H10.715C4.856 85.714.001 80.859.001 75V53.571c0-5.859 4.855-10.714 10.714-10.714h235.714c5.859 0 10.714 4.855 10.714 10.714z"/></symbol><symbol viewBox="0 0 24 23" id="black-cart" xmlns="http://www.w3.org/2000/svg"><defs><path id="ca" d="M23.44 1l-.812 1.719H20.64L16.262 18.7H5.447L.404 6.68H17.62l-.448 1.768H3.03l3.554 8.458h8.345L19.101 1h4.339zM8.178 19.794a1.64 1.64 0 10.001 3.28 1.64 1.64 0 00-.001-3.28zm3.825 1.64a1.64 1.64 0 103.278 0 1.64 1.64 0 00-3.278 0z"/></defs><g fill="none" fill-rule="evenodd" transform="translate(0 -.8)"><mask id="cb" fill="#fff"><use xlink:href="#ca"/></mask><use fill="#18191D" fill-rule="nonzero" xlink:href="#ca"/><g fill="#18191D" mask="url(#cb)"><path d="M0 0h24v24H0z"/></g></g></symbol><symbol viewBox="0 0 24 23" id="cart" xmlns="http://www.w3.org/2000/svg"><defs><path id="da" d="M23.44 1l-.812 1.719H20.64L16.262 18.7H5.447L.404 6.68H17.62l-.448 1.768H3.03l3.554 8.458h8.345L19.101 1h4.339zM8.178 19.794a1.64 1.64 0 10.001 3.28 1.64 1.64 0 00-.001-3.28zm3.825 1.64a1.64 1.64 0 103.278 0 1.64 1.64 0 00-3.278 0z"/></defs><g fill="#fff" fill-rule="evenodd" transform="translate(0 -1)"><mask id="db"><use xlink:href="#da"/></mask><use fill-rule="nonzero" xlink:href="#da"/><g mask="url(#db)"><path d="M0 0h24v24H0z"/></g></g></symbol><symbol class="esvg-inline--fa efa-facebook-f efa-w-9" viewBox="0 0 264 512" id="facebook-f-brands" xmlns="http://www.w3.org/2000/svg"><path fill="currentColor" d="M76.7 512V283H0v-91h76.7v-71.7C76.7 42.4 124.3 0 193.8 0c33.3 0 61.9 2.5 70.2 3.6V85h-48.2c-37.8 0-45.1 18-45.1 44.3V192H256l-11.7 91h-73.6v229"/></symbol><symbol viewBox="0 0 24 24" id="minus" xmlns="http://www.w3.org/2000/svg"><defs><path id="fa" d="M0 .333h16v2H0z"/></defs><g fill="none" fill-rule="evenodd" transform="translate(8 11)"><mask id="fb" fill="#fff"><use xlink:href="#fa"/></mask><use fill="#1F1F1F" xlink:href="#fa"/><g fill="#18191D" mask="url(#fb)"><path d="M-8-11h24v24H-8z"/></g></g></symbol><symbol viewBox="0 0 24 24" id="plus" xmlns="http://www.w3.org/2000/svg"><defs><path id="ga" d="M7 7.333v-7h2v7h7v2H9v7H7v-7H0v-2h7z"/></defs><g fill="none" fill-rule="evenodd" transform="translate(8 4)"><mask id="gb" fill="#fff"><use xlink:href="#ga"/></mask><use fill="#1F1F1F" xlink:href="#ga"/><g fill="#18191D" mask="url(#gb)"><path d="M-8-4h24v24H-8z"/></g></g></symbol><symbol viewBox="0 0 24 24" id="search" xmlns="http://www.w3.org/2000/svg"><defs><path id="ha" d="M6.502 3.188A8.817 8.817 0 002.31 8.565a8.678 8.678 0 00.9 6.72c1.601 2.731 4.59 4.429 7.797 4.429a9.1 9.1 0 002.97-.501l3.082 4.783 2.194-1.2-3.081-4.781c1.367-1.151 3.042-3.119 3.518-4.866a8.678 8.678 0 00-.9-6.72C17.19 3.697 14.2 2 10.994 2c-1.57 0-3.124.41-4.491 1.188zm10.558 4.17a6.954 6.954 0 01.699 5.31 6.953 6.953 0 01-3.26 4.25 6.99 6.99 0 01-3.49.939 7.024 7.024 0 01-6.069-3.501 6.953 6.953 0 01-.698-5.31 6.953 6.953 0 013.26-4.25 6.99 6.99 0 013.49-.94 7.024 7.024 0 016.068 3.502z"/></defs><g fill="none" fill-rule="evenodd"><mask id="hb" fill="#fff"><use xlink:href="#ha"/></mask><use fill="#18191D" fill-rule="nonzero" transform="rotate(-16 11 12.998)" xlink:href="#ha"/><g fill="#18191D" mask="url(#hb)"><path d="M0 0h24v24H0z"/></g></g></symbol><symbol class="isvg-inline--fa ifa-smile-wink ifa-w-16" viewBox="0 0 496 512" id="smile-wink-regular" xmlns="http://www.w3.org/2000/svg"><path fill="currentColor" d="M248 8C111 8 0 119 0 256s111 248 248 248 248-111 248-248S385 8 248 8zm0 448c-110.3 0-200-89.7-200-200S137.7 56 248 56s200 89.7 200 200-89.7 200-200 200zm117.8-146.4c-10.2-8.5-25.3-7.1-33.8 3.1-20.8 25-51.5 39.4-84 39.4s-63.2-14.3-84-39.4c-8.5-10.2-23.7-11.5-33.8-3.1-10.2 8.5-11.5 23.6-3.1 33.8 30 36 74.1 56.6 120.9 56.6s90.9-20.6 120.9-56.6c8.5-10.2 7.1-25.3-3.1-33.8zM168 240c17.7 0 32-14.3 32-32s-14.3-32-32-32-32 14.3-32 32 14.3 32 32 32zm160-60c-25.7 0-55.9 16.9-59.9 42.1-1.7 11.2 11.5 18.2 19.8 10.8l9.5-8.5c14.8-13.2 46.2-13.2 61 0l9.5 8.5c8.5 7.4 21.6.3 19.8-10.8-3.8-25.2-34-42.1-59.7-42.1z"/></symbol></svg>